<svg width="31" height="32" viewBox="0 0 31 32" fill="none" xmlns="http://www.w3.org/2000/svg">
<g id="Google__G__Logo 1" clip-path="url(#clip0_1_938)">
<path id="Vector" d="M30.9999 16.2336C30.9999 15.1548 30.9128 14.0703 30.7268 13.009H15.8108V19.1199H24.3525C23.998 21.0908 22.8592 22.8343 21.1915 23.9421V27.9072H26.2875C29.28 25.1433 30.9999 21.0616 30.9999 16.2336Z" fill="#4285F4"/>
<path id="Vector_2" d="M15.811 31.7381C20.076 31.7381 23.6728 30.3328 26.2934 27.9071L21.1975 23.9421C19.7797 24.91 17.9493 25.4581 15.8168 25.4581C11.6912 25.4581 8.19316 22.6651 6.93805 18.9099H1.67938V22.9974C4.36392 28.3561 9.83177 31.7381 15.811 31.7381Z" fill="#34A853"/>
<path id="Vector_3" d="M6.93224 18.91C6.26983 16.9391 6.26983 14.805 6.93224 12.8341V8.74658H1.67939C-0.563539 13.2306 -0.563539 18.5135 1.67939 22.9975L6.93224 18.91Z" fill="#FBBC04"/>
<path id="Vector_4" d="M15.811 6.28007C18.0655 6.24509 20.2445 7.09641 21.8773 8.65912L26.3922 4.12844C23.5334 1.43452 19.739 -0.0465551 15.811 9.28344e-05C9.83177 9.28344e-05 4.36392 3.38207 1.67938 8.74658L6.93224 12.8341C8.18154 9.07312 11.6854 6.28007 15.811 6.28007Z" fill="#EA4335"/>
</g>
<defs>
<clipPath id="clip0_1_938">
<rect width="31" height="31.7381" fill="white"/>
</clipPath>
</defs>
</svg>
