<svg xmlns="http://www.w3.org/2000/svg" width="61" height="60" viewBox="0 0 61 60" fill="none">
  <path d="M60.568 29.3158L55.7585 24.574C54.5461 23.3823 53.1317 22.4086 51.5792 21.697C52.5158 19.683 53.0016 17.4937 53.0034 15.2781V8.71021C53.0034 8.17579 52.5639 7.7425 52.0218 7.7425H45.3602C43.1127 7.74383 40.8918 8.22236 38.8487 9.14569C38.1269 7.615 37.1394 6.22052 35.9306 5.02515L31.1211 0.28333C30.7379 -0.0944432 30.1165 -0.0944432 29.7333 0.28333L24.9238 5.02515C23.715 6.22052 22.7275 7.615 22.0057 9.14569C19.9631 8.22273 17.743 7.74407 15.4962 7.7425H8.83453C8.29248 7.7425 7.853 8.17579 7.853 8.71021V15.2781C7.85435 17.4939 8.33972 19.6835 9.27622 21.6979C7.72369 22.4096 6.3093 23.3832 5.09687 24.575L0.287373 29.3168C-0.0957912 29.6947 -0.0957912 30.3072 0.287373 30.6851L5.09687 35.427C6.3093 36.6187 7.72369 37.5923 9.27622 38.304C8.34009 40.3178 7.8546 42.5067 7.853 44.7219V51.2898C7.853 51.8242 8.29248 52.2575 8.83453 52.2575H15.4962C17.7436 52.2562 19.9646 51.7776 22.0076 50.8543C22.7294 52.385 23.717 53.7795 24.9257 54.9749L29.7352 59.7167C30.1185 60.0944 30.7398 60.0944 31.1231 59.7167L35.9326 54.9749C37.1414 53.7795 38.1289 52.385 38.8507 50.8543C40.8932 51.7774 43.1133 52.2559 45.3602 52.2575H52.0218C52.5639 52.2575 53.0034 51.8242 53.0034 51.2898V44.7219C53.002 42.5061 52.5166 40.3165 51.5801 38.302C53.1327 37.5904 54.5471 36.6168 55.7595 35.425L60.569 30.6832C60.9513 30.3052 60.9508 29.6934 60.568 29.3158ZM39.5711 10.9495C41.3833 10.1134 43.3595 9.67938 45.3602 9.67793H51.0403V15.2781C51.0394 17.2513 50.5995 19.2003 49.7516 20.9876C48.3261 20.5473 46.8412 20.3232 45.3474 20.3228H44.9548C42.8915 20.3222 40.8513 20.7509 38.9675 21.5809C39.8093 19.7236 40.2441 17.712 40.2435 15.6778V15.2907C40.2437 13.8184 40.017 12.3546 39.5711 10.9495ZM44.9548 22.2583H45.3474C46.5069 22.2606 47.6605 22.4182 48.7769 22.7266C48.2622 23.4931 47.6702 24.2064 47.0101 24.8556L46.8021 25.0608C44.2302 27.6094 40.7313 29.038 37.0849 29.0284L32.7976 29.0323L35.9306 25.9433C38.3188 23.5759 41.5683 22.2489 44.9548 22.2583ZM38.2804 15.2907V15.6778C38.2896 19.0163 36.9437 22.2198 34.5428 24.574L31.4097 27.6639V23.4321C31.4 19.837 32.849 16.3874 35.434 13.8517L35.6421 13.6465C36.3006 12.9958 37.0241 12.4122 37.8014 11.9046C38.1161 13.0068 38.2772 14.1459 38.2804 15.2907ZM26.3136 6.3935L30.4282 2.33683L34.5428 6.3935C35.6165 7.45581 36.4885 8.69933 37.1173 10.065C36.0802 10.6915 35.1201 11.4341 34.2561 12.2782L34.0481 12.4833C32.4446 14.0653 31.2095 15.9723 30.4282 18.0719C29.647 15.9727 28.4122 14.0662 26.8093 12.4843L26.6012 12.2792C25.737 11.4347 24.7765 10.6917 23.7391 10.065C24.3679 8.69945 25.2398 7.45593 26.3136 6.3935ZM22.5759 15.2907C22.5783 14.1476 22.7381 13.0101 23.051 11.9095C23.8284 12.4169 24.5519 13.0006 25.2104 13.6514L25.4185 13.8565C28.0034 16.3922 29.4524 19.8419 29.4427 23.4369V27.6688L26.3097 24.5798C23.9087 22.2235 22.5642 19.0177 22.5759 15.6778V15.2907ZM24.9247 25.9433L28.0588 29.0323H23.7665C20.1202 29.0418 16.6213 27.6132 14.0494 25.0646L13.8413 24.8595C13.1812 24.2103 12.5894 23.4969 12.0746 22.7305C13.1924 22.4204 14.3478 22.2615 15.5089 22.2583H15.9015C19.2878 22.2492 22.5369 23.5762 24.9247 25.9433ZM9.81606 9.67793H15.4962C17.4975 9.67878 19.4743 10.1126 21.2872 10.9485C20.8406 12.3539 20.6133 13.8179 20.6129 15.2907V15.6778C20.6123 17.712 21.0471 19.7236 21.8889 21.5809C20.0051 20.7509 17.9648 20.3222 15.9015 20.3228H15.5089C14.0157 20.3227 12.531 20.5461 11.1058 20.9857C10.2578 19.1991 9.81753 17.2507 9.81606 15.2781V9.67793ZM6.48475 34.0567L2.37018 30L6.48475 25.9433C7.56223 24.8846 8.82349 24.0249 10.2087 23.405C10.8441 24.4275 11.5973 25.3741 12.4534 26.2259L12.6615 26.4311C14.2661 28.0119 16.2003 29.2297 18.3298 30C16.2007 30.7702 14.2669 31.9876 12.6625 33.568L12.4544 33.7731C11.5979 34.6252 10.8443 35.5721 10.2087 36.595C8.82361 35.975 7.56235 35.1154 6.48475 34.0567ZM21.2852 49.0505C19.4731 49.8866 17.4969 50.3206 15.4962 50.3221H9.81606V44.7219C9.81692 42.7487 10.2569 40.7997 11.1048 39.0124C12.5302 39.4527 14.0152 39.6768 15.5089 39.6772H15.9015C17.9648 39.6778 20.0051 39.2491 21.8889 38.4191C21.0471 40.2764 20.6123 42.288 20.6129 44.3222V44.7093C20.6128 46.1816 20.8395 47.6454 21.2852 49.0505ZM15.9015 37.7417H15.5089C14.3495 37.7393 13.1958 37.5818 12.0795 37.2734C12.5942 36.5069 13.1861 35.7936 13.8462 35.1444L14.0543 34.9392C16.6262 32.3906 20.1251 30.962 23.7714 30.9716L28.0588 30.9677L24.9257 34.0567C22.5377 36.4241 19.2881 37.7511 15.9015 37.7417ZM22.5759 44.7093V44.3222C22.5667 40.9837 23.9127 37.7802 26.3136 35.426L29.4467 32.3361V36.5679C29.4563 40.163 28.0074 43.6126 25.4224 46.1483L25.2143 46.3535C24.5558 47.0042 23.8323 47.5879 23.0549 48.0953C22.7404 46.9934 22.5793 45.8542 22.5759 44.7093ZM34.5428 53.6065L30.4282 57.6632L26.3136 53.6065C25.2403 52.5455 24.3683 51.3038 23.7391 49.9398C24.7764 49.3119 25.7365 48.5676 26.6002 47.7218L26.8083 47.5167C28.4116 45.9347 29.6469 44.0277 30.4282 41.9281C31.2094 44.0273 32.4441 45.9338 34.0471 47.5157L34.2552 47.7208C35.1192 48.5666 36.0796 49.3109 37.1173 49.9389C36.4881 51.3032 35.6162 52.5453 34.5428 53.6065ZM38.2804 44.7093C38.278 45.8524 38.1182 46.9899 37.8054 48.0905C37.028 47.5831 36.3045 46.9994 35.646 46.3486L35.4379 46.1435C32.8529 43.6078 31.4039 40.1581 31.4136 36.5631V32.3361L34.5467 35.425C36.9464 37.7801 38.291 40.9838 38.2804 44.3222V44.7093ZM35.9316 34.0567L32.7976 30.9677H37.0898C40.7362 30.9582 44.2351 32.3868 46.807 34.9354L47.015 35.1405C47.6751 35.7897 48.267 36.5031 48.7818 37.2695C47.664 37.5796 46.5087 37.7386 45.3474 37.7417H44.9548C41.5687 37.7508 38.3196 36.4238 35.9316 34.0567ZM51.0403 50.3221H45.3602C43.3589 50.3212 41.3821 49.8874 39.5692 49.0515C40.0158 47.6461 40.2431 46.182 40.2435 44.7093V44.3222C40.2441 42.288 39.8093 40.2764 38.9675 38.4191C40.8513 39.2491 42.8915 39.6778 44.9548 39.6772H45.3474C46.8407 39.6773 48.3254 39.4539 49.7506 39.0143C50.5986 40.8009 51.0388 42.7493 51.0403 44.7219V50.3221ZM54.3716 34.0567C53.2955 35.1149 52.0361 35.9746 50.6526 36.595C50.0157 35.5722 49.2608 34.6256 48.4029 33.7741L48.1948 33.5689C46.5903 31.9882 44.6561 30.7703 42.5265 30C44.6557 29.2298 46.5894 28.0124 48.1939 26.432L48.402 26.2269C49.2598 25.375 50.0147 24.4281 50.6516 23.405C52.0351 24.0254 53.2946 24.8851 54.3706 25.9433L58.4862 30L54.3716 34.0567Z" fill="#F63E7B"/>
</svg>